<?xml version="1.0" standalone="no"?>
<!DOCTYPE svg PUBLIC "-//W3C//DTD SVG 20010904//EN"
 "http://www.w3.org/TR/2001/REC-SVG-20010904/DTD/svg10.dtd">
<svg version="1.0" xmlns="http://www.w3.org/2000/svg"
 width="1280.000000pt" height="1280.000000pt" viewBox="0 0 1280.000000 1280.000000"
 preserveAspectRatio="xMidYMid meet">
<metadata>
Created by potrace 1.14, written by Peter Selinger 2001-2017
</metadata>
<g transform="translate(0.000000,1280.000000) scale(0.100000,-0.100000)"
fill="#000000" stroke="none">
<path d="M12794 12390 c0 -168 2 -236 3 -152 2 83 2 221 0 305 -1 83 -3 15 -3
-153z"/>
<path d="M6063 11194 c-223 -51 -403 -143 -519 -265 -134 -142 -198 -270 -228
-456 -25 -158 0 -347 67 -498 20 -44 32 -84 27 -89 -4 -4 -39 -19 -77 -31
-252 -86 -677 -288 -938 -447 -220 -135 -471 -314 -695 -498 -47 -39 -90 -70
-97 -70 -7 0 -58 42 -112 94 -253 243 -558 369 -854 353 -113 -6 -244 -35
-326 -74 -151 -72 -326 -222 -418 -359 -48 -73 -99 -185 -119 -267 -24 -98
-26 -295 -5 -397 58 -271 277 -525 543 -628 57 -22 120 -44 141 -47 20 -4 39
-11 42 -15 2 -4 -39 -81 -92 -171 -242 -414 -451 -835 -623 -1254 -18 -44 -36
-89 -41 -100 -4 -11 -15 -37 -23 -58 l-15 -37 -53 6 c-29 3 -79 10 -112 15
-32 6 -145 9 -250 8 -163 -2 -207 -6 -290 -26 -103 -24 -235 -81 -308 -131
-238 -164 -375 -458 -363 -779 10 -269 142 -498 374 -648 121 -78 215 -112
390 -139 l76 -12 -3 -39 c-2 -22 -7 -56 -12 -76 -9 -31 -69 -322 -84 -404 -7
-37 -54 -297 -62 -345 -3 -19 -8 -44 -9 -55 -13 -70 -56 -364 -65 -435 -6 -47
-12 -98 -14 -115 -2 -16 -7 -59 -11 -95 -4 -36 -9 -72 -10 -80 -1 -8 -6 -51
-9 -95 -4 -44 -9 -98 -11 -120 -2 -22 -7 -76 -10 -120 -3 -44 -8 -92 -11 -107
l-6 -28 -424 0 -424 0 0 -980 0 -980 6400 0 6400 0 -1 993 c0 545 -3 986 -6
980 -4 -10 -100 -13 -432 -13 l-428 0 8 57 c40 287 78 627 95 843 3 47 7 92 9
100 1 8 6 80 10 160 4 80 9 163 10 185 25 312 25 1302 0 1600 -2 28 -7 93 -10
145 -3 52 -8 113 -10 135 -3 22 -12 110 -20 195 -9 85 -18 166 -20 180 -2 14
-9 61 -15 105 -133 942 -410 1742 -833 2410 -78 122 -264 369 -362 478 -385
433 -758 719 -1275 978 -325 162 -688 291 -1095 389 -225 54 -621 114 -825
125 -192 11 -205 16 -219 78 -40 165 -136 394 -213 505 -168 242 -354 383
-605 458 -76 23 -110 27 -243 29 -134 2 -169 0 -257 -21z"/>
</g>
</svg>
