<?xml version="1.0" standalone="no"?>
<!DOCTYPE svg PUBLIC "-//W3C//DTD SVG 20010904//EN"
 "http://www.w3.org/TR/2001/REC-SVG-20010904/DTD/svg10.dtd">
<svg version="1.0" xmlns="http://www.w3.org/2000/svg"
 width="1280.000000pt" height="1259.000000pt" viewBox="0 0 1280.000000 1259.000000"
 preserveAspectRatio="xMidYMid meet">

<g transform="translate(0.000000,1259.000000) scale(0.100000,-0.100000)"
fill="#000000" stroke="none">
<path d="M12790 7275 l0 -5315 -426 0 -427 0 6 47 c4 27 11 80 16 118 67 480
100 889 126 1555 13 341 14 476 6 760 -15 464 -42 836 -81 1110 -5 36 -14 101
-20 145 -6 44 -15 103 -20 130 -5 28 -14 77 -19 110 -6 33 -18 96 -27 140 -28
137 -33 159 -39 190 -26 126 -76 319 -96 373 -5 13 -9 32 -9 43 0 10 -4 27 -9
37 -5 9 -33 91 -62 182 -53 165 -83 250 -100 282 -5 10 -9 22 -9 28 0 10 -11
36 -67 160 -14 30 -32 73 -41 95 -9 22 -53 112 -97 200 -283 555 -657 1025
-1100 1378 -33 27 -67 54 -75 60 -84 69 -318 225 -470 314 -261 154 -690 333
-1015 424 -38 11 -86 25 -105 30 -74 22 -157 41 -310 73 -311 65 -521 94 -805
111 -55 4 -105 11 -112 17 -7 5 -15 26 -19 47 -3 20 -10 50 -15 66 -107 353
-245 569 -479 746 -86 65 -223 133 -315 157 -22 6 -59 15 -81 21 -49 13 -339
15 -380 2 -16 -5 -54 -14 -84 -21 -111 -24 -259 -84 -343 -137 -285 -183 -436
-532 -372 -863 24 -125 26 -132 65 -216 43 -93 46 -87 -50 -118 -52 -16 -122
-43 -165 -61 -16 -7 -73 -30 -125 -51 -128 -51 -465 -223 -625 -319 -114 -68
-401 -258 -415 -274 -3 -3 -32 -26 -65 -51 -33 -25 -62 -47 -65 -50 -3 -3 -25
-21 -50 -40 -61 -47 -75 -58 -127 -105 -60 -52 -82 -67 -93 -63 -5 2 -44 37
-87 78 -127 123 -183 165 -314 238 -188 104 -431 157 -610 134 -240 -33 -398
-110 -570 -282 -88 -88 -148 -168 -188 -255 -68 -146 -84 -217 -84 -375 0
-193 40 -324 146 -486 43 -65 149 -175 227 -236 73 -57 281 -148 339 -148 44
-1 41 -16 -34 -140 -41 -69 -80 -133 -86 -144 -30 -51 -55 -96 -79 -141 -15
-27 -44 -79 -64 -115 -36 -66 -246 -486 -246 -494 0 -2 -19 -44 -41 -93 -42
-89 -109 -245 -156 -363 -14 -36 -33 -82 -41 -103 l-16 -38 -51 6 c-27 4 -68
12 -90 18 -59 16 -448 15 -510 -1 -27 -7 -68 -18 -90 -24 -178 -47 -348 -157
-450 -293 -122 -163 -189 -368 -188 -580 0 -324 183 -604 483 -742 103 -47
235 -83 308 -83 20 0 42 -4 49 -8 12 -8 11 -19 -37 -232 -6 -30 -44 -216 -64
-315 -9 -46 -46 -252 -57 -320 -5 -33 -14 -87 -20 -120 -9 -57 -16 -101 -38
-263 -36 -258 -57 -448 -80 -729 -5 -62 -12 -117 -16 -123 -4 -7 -144 -10
-426 -10 l-419 0 0 -105 0 -105 2300 0 2300 0 56 -52 c130 -123 251 -188 439
-239 67 -18 302 -18 380 0 139 32 250 79 325 139 55 45 57 46 104 104 l38 48
1579 0 1578 0 78 -78 c63 -63 96 -87 168 -121 116 -56 120 -58 255 -92 102
-26 385 -11 425 23 5 4 16 8 25 8 17 0 125 54 188 94 23 14 76 58 116 96 l73
70 1182 0 1181 0 3 -877 c1 -483 3 1956 5 5420 1 3463 0 6297 -3 6297 -3 0 -5
-2392 -5 -5315z m-6337 3630 c204 -39 376 -157 525 -358 84 -113 187 -347 194
-440 l3 -32 -175 -6 c-96 -4 -207 -10 -246 -14 -69 -7 -72 -7 -87 16 -132 212
-223 326 -295 371 -72 45 -162 -2 -162 -84 0 -30 8 -45 41 -79 104 -106 196
-230 185 -248 -4 -5 -32 -12 -64 -16 -31 -3 -75 -10 -97 -15 -22 -5 -74 -14
-115 -21 -41 -7 -104 -18 -140 -26 -59 -13 -88 -20 -190 -43 -19 -4 -69 -17
-110 -29 -41 -11 -81 -21 -87 -21 -20 0 -64 78 -91 160 -22 65 -25 94 -26 220
-1 128 2 152 23 210 89 245 283 392 601 455 91 17 221 18 313 0z m1192 -1065
c169 -18 266 -31 360 -46 50 -9 115 -19 145 -24 47 -8 121 -24 280 -60 402
-92 882 -281 1243 -489 103 -59 287 -177 297 -190 3 -4 30 -24 60 -45 217
-153 496 -418 680 -646 25 -30 47 -57 50 -60 44 -41 330 -463 330 -486 0 -3
12 -23 27 -47 44 -69 198 -383 249 -507 111 -273 191 -516 275 -840 16 -63 39
-160 50 -215 12 -55 25 -120 31 -145 19 -94 45 -244 58 -335 5 -38 14 -101 20
-140 17 -114 46 -399 61 -595 28 -387 33 -1219 9 -1575 -26 -397 -31 -466 -40
-560 -5 -55 -14 -154 -20 -220 -6 -66 -15 -154 -21 -195 -5 -41 -14 -111 -20
-155 -25 -202 -31 -242 -38 -270 l-7 -30 -562 -3 c-397 -1 -562 1 -562 9 0 6
21 45 47 87 25 42 59 100 75 129 57 104 26 193 -68 193 -55 0 -81 -23 -130
-115 -139 -260 -320 -467 -475 -543 -106 -52 -150 -62 -274 -61 -219 0 -401
80 -494 218 -63 93 -84 180 -83 345 0 76 6 161 12 190 29 127 63 255 86 322
13 40 24 87 24 106 0 49 -36 88 -87 95 -75 10 -108 -29 -155 -186 -94 -312
-117 -559 -72 -764 l6 -27 -1492 0 -1493 0 7 63 c20 194 16 331 -14 472 -5 22
-14 67 -21 100 -12 60 -26 117 -54 221 -27 99 -72 134 -147 113 -30 -7 -43
-18 -55 -45 -19 -39 -14 -77 29 -244 39 -148 68 -335 68 -438 0 -68 -21 -187
-45 -258 -46 -136 -169 -233 -353 -274 -77 -18 -255 -15 -326 4 -244 66 -429
249 -612 604 -53 104 -112 129 -181 76 -30 -23 -33 -30 -33 -78 0 -28 4 -56 9
-62 4 -5 32 -54 61 -109 29 -55 56 -104 61 -109 34 -37 61 -36 -1673 -34
l-1683 3 0 70 c0 110 39 469 85 790 12 83 25 179 30 215 5 36 16 99 24 140 8
41 19 109 26 150 7 41 18 102 25 135 8 33 16 80 20 105 4 25 11 61 16 80 5 19
27 118 49 220 21 102 58 257 80 345 23 88 48 187 56 220 8 33 23 89 34 125 10
36 29 99 41 140 51 179 186 602 208 655 5 11 14 34 19 50 22 64 114 311 127
340 7 17 38 93 70 170 31 77 65 158 75 180 10 22 29 65 43 95 14 30 35 78 47
105 46 105 227 457 323 630 107 192 245 417 339 553 32 45 58 87 58 92 0 6 4
10 8 10 4 0 16 13 25 30 10 16 23 35 30 42 7 7 28 35 47 62 58 85 269 347 364
451 212 234 458 465 656 618 535 414 1097 700 1720 877 171 49 274 74 405 100
33 6 78 15 100 20 22 5 78 13 125 20 47 6 114 15 150 20 81 11 274 30 360 34
131 7 698 -3 795 -14z m-4783 -869 c13 -5 43 -15 68 -22 122 -34 294 -138 413
-249 119 -111 119 -100 -10 -232 -100 -102 -167 -175 -246 -266 -32 -37 -36
-38 -68 -13 -118 92 -395 251 -439 251 -52 0 -110 -57 -110 -107 0 -41 37 -78
121 -120 83 -41 235 -138 294 -187 36 -30 41 -20 -90 -198 -49 -67 -105 -145
-122 -172 -18 -28 -40 -54 -48 -59 -32 -17 -225 35 -313 85 -227 129 -362 351
-362 596 0 230 124 444 345 598 44 30 160 84 182 84 10 0 23 4 29 9 5 6 32 12
59 14 72 7 270 -1 297 -12z m-1344 -3373 c46 -6 86 -17 89 -24 4 -10 -23 -95
-85 -264 -11 -30 -35 -102 -53 -158 -18 -57 -39 -106 -46 -109 -8 -3 -33 1
-56 10 -92 33 -220 57 -303 57 -59 0 -68 -3 -95 -29 -37 -37 -40 -93 -6 -134
19 -25 34 -30 116 -42 104 -16 97 -14 205 -46 l78 -23 -6 -36 c-3 -19 -15 -69
-26 -110 -32 -113 -37 -129 -59 -210 -10 -41 -27 -101 -35 -133 -9 -32 -16
-60 -16 -62 0 -9 -88 -5 -142 6 -282 57 -447 195 -533 444 -26 77 -31 207 -10
311 58 296 229 478 513 545 113 27 305 30 470 7z"/>
<path d="M7250 8690 c-14 -4 -45 -13 -70 -21 -111 -32 -228 -104 -299 -185
-244 -277 -131 -763 243 -1044 l58 -44 -28 -8 c-112 -31 -233 -40 -473 -35
-135 3 -271 10 -301 15 -30 6 -73 13 -95 16 -105 18 -292 73 -358 107 -22 10
-43 19 -49 19 -5 0 -42 23 -82 50 -90 62 -136 67 -181 20 -23 -24 -30 -40 -30
-72 0 -36 6 -46 52 -88 106 -97 353 -194 629 -246 175 -33 605 -47 753 -24
185 28 245 42 361 80 83 27 79 27 180 -3 116 -34 125 -36 252 -52 249 -33 485
-12 753 67 92 27 263 94 275 107 3 3 22 15 42 26 71 38 146 99 162 131 30 65
-21 144 -93 144 -22 0 -59 -18 -119 -58 -48 -32 -114 -69 -147 -82 -33 -13
-64 -27 -69 -32 -6 -4 -19 -8 -31 -8 -12 0 -25 -4 -30 -9 -9 -8 -83 -29 -180
-52 -150 -35 -363 -47 -522 -29 -124 15 -141 26 -92 62 40 30 142 165 179 238
62 122 75 182 75 340 0 125 -3 154 -23 215 -62 186 -184 333 -338 410 -90 44
-141 55 -264 54 -63 0 -126 -4 -140 -9z m260 -212 c87 -25 193 -120 244 -218
56 -106 72 -255 41 -375 -36 -138 -151 -288 -279 -364 l-57 -34 -67 33 c-119
60 -230 149 -297 240 -42 57 -84 134 -97 174 -51 167 -51 232 -1 344 69 155
325 255 513 200z"/>
<path d="M8315 6721 c-68 -12 -142 -65 -173 -127 -87 -172 30 -374 219 -374
152 0 253 102 251 255 0 82 -19 132 -65 176 -63 61 -145 85 -232 70z"/>
<path d="M6473 6681 c-73 -19 -136 -76 -163 -148 -48 -130 -1 -265 115 -326
54 -29 173 -30 227 -3 156 77 191 293 67 414 -19 19 -46 40 -60 47 -33 18
-143 27 -186 16z"/>
<path d="M7477 5741 c-14 -17 -33 -56 -43 -88 -36 -116 -107 -196 -219 -248
-137 -64 -291 -67 -420 -10 -50 22 -105 66 -105 83 0 18 -52 44 -87 44 -67 0
-112 -57 -99 -127 9 -47 92 -135 163 -172 32 -17 91 -41 131 -53 l72 -22 0
-39 c0 -83 68 -298 127 -398 31 -54 140 -171 160 -171 7 0 13 -4 13 -8 0 -8
26 -23 73 -41 12 -4 33 -13 47 -19 54 -22 176 -34 242 -22 100 17 216 60 226
83 2 4 8 7 14 7 25 0 133 109 183 185 30 45 55 85 55 88 0 4 13 34 29 66 27
57 63 181 76 263 5 35 8 38 63 53 131 36 235 93 266 146 62 105 -56 207 -155
134 -74 -54 -140 -79 -227 -83 -119 -6 -226 28 -305 98 -40 35 -92 129 -102
184 -16 90 -124 130 -178 67z m114 -377 c66 -69 186 -137 282 -160 40 -9 43
-27 23 -108 -30 -117 -95 -243 -163 -317 -68 -72 -124 -104 -208 -120 -161
-30 -298 46 -375 205 -34 71 -70 201 -70 250 0 37 3 38 70 51 49 9 148 44 190
67 54 31 140 99 169 135 14 18 31 33 37 33 5 0 26 -16 45 -36z"/>
</g>
</svg>
