<?xml version="1.0" standalone="no"?>
<!DOCTYPE svg PUBLIC "-//W3C//DTD SVG 20010904//EN"
 "http://www.w3.org/TR/2001/REC-SVG-20010904/DTD/svg10.dtd">
<svg version="1.0" xmlns="http://www.w3.org/2000/svg"
 width="1280.000000pt" height="1280.000000pt" viewBox="0 0 1280.000000 1280.000000"
 preserveAspectRatio="xMidYMid meet">
<metadata>
Created by potrace 1.14, written by Peter Selinger 2001-2017
</metadata>
<g transform="translate(0.000000,1280.000000) scale(0.100000,-0.100000)"
fill="#000000" stroke="none">
<path d="M6160 11214 c-230 -44 -363 -95 -511 -195 -156 -106 -289 -313 -325
-504 -35 -187 -17 -361 56 -530 21 -49 35 -93 31 -97 -4 -4 -81 -36 -171 -71
-91 -35 -185 -73 -210 -84 -25 -12 -70 -31 -100 -44 -102 -43 -284 -136 -420
-214 -127 -74 -436 -271 -465 -298 -8 -6 -62 -48 -120 -92 -59 -44 -152 -117
-206 -162 -55 -46 -106 -83 -113 -83 -8 0 -61 43 -118 96 -150 140 -298 235
-446 288 -256 91 -539 83 -746 -20 -216 -109 -385 -283 -477 -494 -48 -108
-67 -199 -67 -326 -1 -306 138 -561 405 -742 35 -24 84 -52 110 -63 55 -24
192 -69 210 -69 27 0 18 -23 -59 -156 -44 -76 -92 -159 -106 -184 -13 -25 -42
-74 -62 -110 -109 -189 -350 -696 -475 -1000 l-72 -175 -32 1 c-18 0 -76 7
-129 14 -63 8 -165 11 -292 8 -175 -4 -204 -8 -284 -32 -179 -54 -288 -117
-396 -227 -102 -104 -181 -252 -226 -424 -27 -104 -24 -323 5 -428 51 -184
166 -348 315 -449 132 -90 249 -135 425 -162 54 -8 76 -16 76 -26 1 -20 -6
-53 -48 -255 -77 -363 -152 -805 -191 -1125 -33 -273 -53 -461 -61 -590 -4
-52 -9 -103 -12 -112 -4 -17 -33 -18 -429 -18 l-424 0 0 -980 0 -980 6400 0
6400 0 0 978 0 977 -333 2 c-182 1 -377 2 -433 2 l-101 1 8 63 c5 34 11 80 14
102 7 50 44 356 50 410 10 91 25 245 31 325 3 47 7 101 9 120 2 19 6 94 10
165 4 72 8 146 10 165 23 263 24 1401 0 1635 -1 17 -6 71 -10 120 -3 50 -8 99
-10 110 -1 11 -6 61 -10 110 -4 50 -9 97 -10 105 -2 8 -6 47 -10 85 -4 39 -9
77 -10 85 -1 8 -6 40 -10 70 -3 30 -8 66 -10 80 -156 1015 -470 1864 -929
2512 -289 409 -670 780 -1067 1040 -339 222 -661 376 -1071 514 -448 150 -891
240 -1328 269 -132 9 -174 15 -187 28 -7 7 -28 66 -47 132 -76 264 -182 451
-352 621 -132 132 -305 230 -471 268 -70 15 -324 29 -373 20z"/>
</g>
</svg>
